<?xml version="1.0" encoding="UTF-8" standalone="no"?>
<!DOCTYPE svg PUBLIC "-//W3C//DTD SVG 1.1//EN"
 "http://www.w3.org/Graphics/SVG/1.1/DTD/svg11.dtd">
<!-- Generated by graphviz version 2.36.0 (20140111.2315)
 -->
<!-- Title: %3 Pages: 1 -->
<svg width="452pt" height="260pt"
 viewBox="0.00 0.00 452.00 260.00" xmlns="http://www.w3.org/2000/svg" xmlns:xlink="http://www.w3.org/1999/xlink">
<g id="graph0" class="graph" transform="scale(1 1) rotate(0) translate(4 256)">
<title>%3</title>
<polygon fill="white" stroke="none" points="-4,4 -4,-256 448,-256 448,4 -4,4"/>
<g id="clust1" class="cluster"><title>cluster_config</title>
<polygon fill="none" stroke="black" points="8,-64 8,-116 436,-116 436,-64 8,-64"/>
</g>
<!-- project_config -->
<g id="node1" class="node"><title>project_config</title>
<polygon fill="none" stroke="black" points="365,-252 243,-252 243,-216 365,-216 365,-252"/>
<text text-anchor="middle" x="304" y="-230.3" font-family="Times,serif" font-size="14.00">Fork project&#45;config</text>
</g>
<!-- heat_template -->
<g id="node2" class="node"><title>heat_template</title>
<polygon fill="none" stroke="black" points="370,-180 238,-180 238,-144 370,-144 370,-180"/>
<text text-anchor="middle" x="304" y="-158.3" font-family="Times,serif" font-size="14.00">Create Heat template</text>
</g>
<!-- project_config&#45;&gt;heat_template -->
<g id="edge1" class="edge"><title>project_config&#45;&gt;heat_template</title>
<path fill="none" stroke="black" d="M304,-215.697C304,-207.983 304,-198.712 304,-190.112"/>
<polygon fill="black" stroke="black" points="307.5,-190.104 304,-180.104 300.5,-190.104 307.5,-190.104"/>
</g>
<!-- topics -->
<g id="node3" class="node"><title>topics</title>
<polygon fill="none" stroke="black" points="427.5,-108 180.5,-108 180.5,-72 427.5,-72 427.5,-108"/>
<text text-anchor="middle" x="304" y="-86.3" font-family="Times,serif" font-size="14.00">Add topics from global&#45;config to template</text>
</g>
<!-- heat_template&#45;&gt;topics -->
<g id="edge2" class="edge"><title>heat_template&#45;&gt;topics</title>
<path fill="none" stroke="black" d="M304,-143.697C304,-135.983 304,-126.712 304,-118.112"/>
<polygon fill="black" stroke="black" points="307.5,-126 304,-116 300.5,-126 307.5,-126"/>
</g>
<!-- deploy -->
<g id="node5" class="node"><title>deploy</title>
<polygon fill="none" stroke="black" points="372.25,-36 235.75,-36 235.75,-0 372.25,-0 372.25,-36"/>
<text text-anchor="middle" x="304" y="-14.3" font-family="Times,serif" font-size="14.00">Deploy Heat template</text>
</g>
<!-- topics&#45;&gt;deploy -->
<g id="edge3" class="edge"><title>topics&#45;&gt;deploy</title>
<path fill="none" stroke="black" d="M304,-64.0768C304,-58.2543 304,-52.0249 304,-46.1124"/>
<polygon fill="black" stroke="black" points="307.5,-46.1043 304,-36.1043 300.5,-46.1044 307.5,-46.1043"/>
</g>
<!-- edit_config -->
<g id="node4" class="node"><title>edit_config</title>
<polygon fill="none" stroke="black" points="162,-108 16,-108 16,-72 162,-72 162,-108"/>
<text text-anchor="middle" x="89" y="-86.3" font-family="Times,serif" font-size="14.00">Edit project&#45;config fork</text>
</g>
</g>
</svg>
