<?xml version="1.0" encoding="UTF-8" standalone="no"?>
<!DOCTYPE svg PUBLIC "-//W3C//DTD SVG 1.1//EN"
 "http://www.w3.org/Graphics/SVG/1.1/DTD/svg11.dtd">
<!-- Generated by graphviz version 2.36.0 (20140111.2315)
 -->
<!-- Title: %3 Pages: 1 -->
<svg width="959pt" height="303pt"
 viewBox="0.00 0.00 959.00 303.00" xmlns="http://www.w3.org/2000/svg" xmlns:xlink="http://www.w3.org/1999/xlink">
<g id="graph0" class="graph" transform="scale(1 1) rotate(0) translate(4 299)">
<title>%3</title>
<polygon fill="white" stroke="none" points="-4,4 -4,-299 955,-299 955,4 -4,4"/>
<g id="clust1" class="cluster"><title>cluster_metadata_master</title>
<polygon fill="none" stroke="black" points="8,-78 8,-192 477,-192 477,-78 8,-78"/>
<text text-anchor="middle" x="242.5" y="-176.8" font-family="Times,serif" font-size="14.00">cloud&#45;init metadata</text>
</g>
<g id="clust2" class="cluster"><title>cluster_topics</title>
<polygon fill="none" stroke="black" points="180,-86 180,-161 469,-161 469,-86 180,-86"/>
<text text-anchor="middle" x="324.5" y="-145.8" font-family="Times,serif" font-size="14.00">topics</text>
</g>
<g id="clust3" class="cluster"><title>cluster_metadata_nginx</title>
<polygon fill="none" stroke="black" points="587,-78 587,-192 943,-192 943,-78 587,-78"/>
<text text-anchor="middle" x="765" y="-176.8" font-family="Times,serif" font-size="14.00">cloud&#45;init metadata</text>
</g>
<g id="clust4" class="cluster"><title>cluster_topics</title>
<polygon fill="none" stroke="black" points="759,-86 759,-161 935,-161 935,-86 759,-86"/>
<text text-anchor="middle" x="847" y="-145.8" font-family="Times,serif" font-size="14.00">topics</text>
</g>
<g id="clust5" class="cluster"><title>cluster_heat_params</title>
<polygon fill="none" stroke="black" points="331,-212 331,-287 771,-287 771,-212 331,-212"/>
<text text-anchor="middle" x="551" y="-271.8" font-family="Times,serif" font-size="14.00">Heat Parameters</text>
</g>
<!-- stack_name -->
<g id="node1" class="node"><title>stack_name</title>
<polygon fill="none" stroke="black" points="169.25,-130 88.75,-130 88.75,-94 169.25,-94 169.25,-130"/>
<text text-anchor="middle" x="129" y="-108.3" font-family="Times,serif" font-size="14.00">stack_name</text>
</g>
<!-- adots -->
<g id="node2" class="node"><title>adots</title>
<polygon fill="none" stroke="black" points="70,-130 16,-130 16,-94 70,-94 70,-130"/>
<text text-anchor="middle" x="43" y="-108.3" font-family="Times,serif" font-size="14.00">...</text>
</g>
<!-- puppet_master -->
<g id="node3" class="node"><title>puppet_master</title>
<polygon fill="none" stroke="black" points="460.25,-130 365.75,-130 365.75,-94 460.25,-94 460.25,-130"/>
<text text-anchor="middle" x="413" y="-108.3" font-family="Times,serif" font-size="14.00">puppet&#45;master</text>
</g>
<!-- puppet_agent -->
<g id="node4" class="node"><title>puppet_agent</title>
<polygon fill="none" stroke="black" points="347.25,-130 260.75,-130 260.75,-94 347.25,-94 347.25,-130"/>
<text text-anchor="middle" x="304" y="-108.3" font-family="Times,serif" font-size="14.00">puppet&#45;agent</text>
</g>
<!-- bdots -->
<g id="node5" class="node"><title>bdots</title>
<polygon fill="none" stroke="black" points="242,-130 188,-130 188,-94 242,-94 242,-130"/>
<text text-anchor="middle" x="215" y="-108.3" font-family="Times,serif" font-size="14.00">...</text>
</g>
<!-- puppetmaster -->
<g id="node15" class="node"><title>puppetmaster</title>
<ellipse fill="none" stroke="black" cx="454" cy="-18" rx="58.2422" ry="18"/>
<text text-anchor="middle" x="454" y="-14.3" font-family="Times,serif" font-size="14.00">puppetmaster</text>
</g>
<!-- bdots&#45;&gt;puppetmaster -->
<g id="edge5" class="edge"><title>bdots&#45;&gt;puppetmaster</title>
<path fill="none" stroke="black" d="M251,-78C295.475,-52.9825 351.519,-37.7364 393.447,-29.0271"/>
<polygon fill="black" stroke="black" points="394.401,-32.4054 403.515,-27.0043 393.022,-25.5426 394.401,-32.4054"/>
</g>
<!-- nginx_stack_name -->
<g id="node6" class="node"><title>nginx_stack_name</title>
<polygon fill="none" stroke="black" points="748.25,-130 667.75,-130 667.75,-94 748.25,-94 748.25,-130"/>
<text text-anchor="middle" x="708" y="-108.3" font-family="Times,serif" font-size="14.00">stack_name</text>
</g>
<!-- nginx -->
<g id="node16" class="node"><title>nginx</title>
<ellipse fill="none" stroke="black" cx="633" cy="-18" rx="55.3682" ry="18"/>
<text text-anchor="middle" x="633" y="-14.3" font-family="Times,serif" font-size="14.00">nginx&#45;server</text>
</g>
<!-- nginx_stack_name&#45;&gt;nginx -->
<g id="edge6" class="edge"><title>nginx_stack_name&#45;&gt;nginx</title>
<path fill="none" stroke="black" d="M681.216,-78.1455C671.887,-66.7008 661.59,-54.071 652.917,-43.4311"/>
<polygon fill="black" stroke="black" points="655.57,-41.1465 646.539,-35.6072 650.144,-45.5696 655.57,-41.1465"/>
</g>
<!-- cdots -->
<g id="node7" class="node"><title>cdots</title>
<polygon fill="none" stroke="black" points="649,-130 595,-130 595,-94 649,-94 649,-130"/>
<text text-anchor="middle" x="622" y="-108.3" font-family="Times,serif" font-size="14.00">...</text>
</g>
<!-- nginx_puppet_agent -->
<g id="node8" class="node"><title>nginx_puppet_agent</title>
<polygon fill="none" stroke="black" points="926.25,-130 839.75,-130 839.75,-94 926.25,-94 926.25,-130"/>
<text text-anchor="middle" x="883" y="-108.3" font-family="Times,serif" font-size="14.00">puppet&#45;agent</text>
</g>
<!-- ddots -->
<g id="node9" class="node"><title>ddots</title>
<polygon fill="none" stroke="black" points="821,-130 767,-130 767,-94 821,-94 821,-130"/>
<text text-anchor="middle" x="794" y="-108.3" font-family="Times,serif" font-size="14.00">...</text>
</g>
<!-- deploy_key -->
<g id="node10" class="node"><title>deploy_key</title>
<polygon fill="none" stroke="black" points="419,-256 339,-256 339,-220 419,-220 419,-256"/>
<text text-anchor="middle" x="379" y="-234.3" font-family="Times,serif" font-size="14.00">deploy_key</text>
</g>
<!-- autostrap -->
<g id="node14" class="node"><title>autostrap</title>
<polygon fill="none" stroke="black" points="576.25,-130 485.75,-130 485.75,-94 576.25,-94 576.25,-130"/>
<text text-anchor="middle" x="531" y="-108.3" font-family="Times,serif" font-size="14.00">AS::autostrap</text>
</g>
<!-- deploy_key&#45;&gt;autostrap -->
<g id="edge1" class="edge"><title>deploy_key&#45;&gt;autostrap</title>
<path fill="none" stroke="black" d="M411.827,-219.947C417.207,-217.24 422.742,-214.508 428,-212 447.755,-202.579 455.952,-205.726 473,-192 491.115,-177.415 506.421,-155.883 516.753,-138.98"/>
<polygon fill="black" stroke="black" points="519.901,-140.531 521.967,-130.14 513.872,-136.975 519.901,-140.531"/>
</g>
<!-- config_repo -->
<g id="node11" class="node"><title>config_repo</title>
<polygon fill="none" stroke="black" points="519,-256 437,-256 437,-220 519,-220 519,-256"/>
<text text-anchor="middle" x="478" y="-234.3" font-family="Times,serif" font-size="14.00">config_repo</text>
</g>
<!-- config_repo&#45;&gt;autostrap -->
<g id="edge2" class="edge"><title>config_repo&#45;&gt;autostrap</title>
<path fill="none" stroke="black" d="M485.369,-219.758C494.269,-198.937 509.333,-163.694 519.703,-139.432"/>
<polygon fill="black" stroke="black" points="522.981,-140.666 523.693,-130.095 516.545,-137.915 522.981,-140.666"/>
</g>
<!-- config_branch -->
<g id="node12" class="node"><title>config_branch</title>
<polygon fill="none" stroke="black" points="632.25,-256 537.75,-256 537.75,-220 632.25,-220 632.25,-256"/>
<text text-anchor="middle" x="585" y="-234.3" font-family="Times,serif" font-size="14.00">config_branch</text>
</g>
<!-- config_branch&#45;&gt;autostrap -->
<g id="edge3" class="edge"><title>config_branch&#45;&gt;autostrap</title>
<path fill="none" stroke="black" d="M577.492,-219.758C568.424,-198.937 553.076,-163.694 542.511,-139.432"/>
<polygon fill="black" stroke="black" points="545.646,-137.866 538.445,-130.095 539.229,-140.661 545.646,-137.866"/>
</g>
<!-- additional_config -->
<g id="node13" class="node"><title>additional_config</title>
<polygon fill="none" stroke="black" points="762.5,-256 651.5,-256 651.5,-220 762.5,-220 762.5,-256"/>
<text text-anchor="middle" x="707" y="-234.3" font-family="Times,serif" font-size="14.00">additional_config</text>
</g>
<!-- additional_config&#45;&gt;autostrap -->
<g id="edge4" class="edge"><title>additional_config&#45;&gt;autostrap</title>
<path fill="none" stroke="black" d="M662.334,-219.874C655.212,-217.202 647.913,-214.501 641,-212 615.359,-202.725 604.535,-208.726 583,-192 565.165,-178.148 551.485,-156.379 542.643,-139.197"/>
<polygon fill="black" stroke="black" points="545.778,-137.64 538.233,-130.203 539.493,-140.722 545.778,-137.64"/>
</g>
<!-- autostrap&#45;&gt;puppetmaster -->
<g id="edge7" class="edge"><title>autostrap&#45;&gt;puppetmaster</title>
<path fill="none" stroke="black" d="M508.573,-93.9678C500.296,-87.0581 491.191,-78.6665 484,-70 477.709,-62.4181 471.921,-53.3592 467.143,-44.9941"/>
<polygon fill="black" stroke="black" points="470.071,-43.055 462.203,-35.9601 463.93,-46.4133 470.071,-43.055"/>
<text text-anchor="middle" x="510" y="-58.3" font-family="Times,serif" font-size="14.00">user_data</text>
</g>
<!-- autostrap&#45;&gt;nginx -->
<g id="edge8" class="edge"><title>autostrap&#45;&gt;nginx</title>
<path fill="none" stroke="black" d="M550.185,-93.6955C566.3,-79.1611 589.469,-58.2628 607.206,-42.2653"/>
<polygon fill="black" stroke="black" points="609.846,-44.5971 614.928,-35.3004 605.158,-39.3991 609.846,-44.5971"/>
<text text-anchor="middle" x="620" y="-58.3" font-family="Times,serif" font-size="14.00">user_data</text>
</g>
</g>
</svg>
