<?xml version="1.0" encoding="UTF-8" standalone="no"?>
<!DOCTYPE svg PUBLIC "-//W3C//DTD SVG 1.1//EN"
 "http://www.w3.org/Graphics/SVG/1.1/DTD/svg11.dtd">
<!-- Generated by graphviz version 2.36.0 (20140111.2315)
 -->
<!-- Title: %3 Pages: 1 -->
<svg width="918pt" height="222pt"
 viewBox="0.00 0.00 918.00 222.00" xmlns="http://www.w3.org/2000/svg" xmlns:xlink="http://www.w3.org/1999/xlink">
<g id="graph0" class="graph" transform="scale(1 1) rotate(0) translate(4 218)">
<title>%3</title>
<polygon fill="white" stroke="none" points="-4,4 -4,-218 914,-218 914,4 -4,4"/>
<g id="clust2" class="cluster"><title>cluster_puppet</title>
<polygon fill="none" stroke="black" points="216,-8 216,-83 716,-83 716,-8 216,-8"/>
<text text-anchor="middle" x="259" y="-67.8" font-family="Times,serif" font-size="14.00">Puppet setup</text>
</g>
<!-- autostrap -->
<g id="node1" class="node"><title>autostrap</title>
<polygon fill="none" stroke="black" points="187.5,-214 0.5,-214 0.5,-178 187.5,-178 187.5,-214"/>
<text text-anchor="middle" x="94" y="-192.3" font-family="Times,serif" font-size="14.00">user&#45;data script (AS::autostrap)</text>
</g>
<!-- initialize_instance -->
<g id="node2" class="node"><title>initialize_instance</title>
<polygon fill="none" stroke="black" points="151.5,-160 36.5,-160 36.5,-124 151.5,-124 151.5,-160"/>
<text text-anchor="middle" x="94" y="-138.3" font-family="Times,serif" font-size="14.00">initialize_instance</text>
</g>
<!-- autostrap&#45;&gt;initialize_instance -->
<g id="edge3" class="edge"><title>autostrap&#45;&gt;initialize_instance</title>
<path fill="none" stroke="black" d="M94,-177.79C94,-175.308 94,-172.826 94,-170.344"/>
<polygon fill="black" stroke="black" points="97.5001,-170.141 94,-160.141 90.5001,-170.141 97.5001,-170.141"/>
</g>
<!-- setup_repos -->
<g id="node4" class="node"><title>setup_repos</title>
<polygon fill="none" stroke="black" points="134.5,-106 53.5,-106 53.5,-70 134.5,-70 134.5,-106"/>
<text text-anchor="middle" x="94" y="-84.3" font-family="Times,serif" font-size="14.00">setup_repos</text>
</g>
<!-- initialize_instance&#45;&gt;setup_repos -->
<g id="edge4" class="edge"><title>initialize_instance&#45;&gt;setup_repos</title>
<path fill="none" stroke="black" d="M94,-123.79C94,-121.308 94,-118.826 94,-116.344"/>
<polygon fill="black" stroke="black" points="97.5001,-116.141 94,-106.141 90.5001,-116.141 97.5001,-116.141"/>
</g>
<!-- setup_system -->
<g id="node3" class="node"><title>setup_system</title>
<polygon fill="none" stroke="black" points="151.5,-52 36.5,-52 36.5,-16 151.5,-16 151.5,-52"/>
<text text-anchor="middle" x="94" y="-30.3" font-family="Times,serif" font-size="14.00">020&#45;setup_system</text>
</g>
<!-- setup_puppet_modules -->
<g id="node5" class="node"><title>setup_puppet_modules</title>
<polygon fill="none" stroke="black" points="391.5,-52 224.5,-52 224.5,-16 391.5,-16 391.5,-52"/>
<text text-anchor="middle" x="308" y="-30.3" font-family="Times,serif" font-size="14.00">040&#45;setup_puppet_modules</text>
</g>
<!-- setup_system&#45;&gt;setup_puppet_modules -->
<g id="edge6" class="edge"><title>setup_system&#45;&gt;setup_puppet_modules</title>
<path fill="none" stroke="black" d="M151.534,-34C170.806,-34 192.89,-34 214.245,-34"/>
<polygon fill="black" stroke="black" points="214.323,-37.5001 224.323,-34 214.323,-30.5001 214.323,-37.5001"/>
</g>
<!-- setup_repos&#45;&gt;setup_system -->
<g id="edge5" class="edge"><title>setup_repos&#45;&gt;setup_system</title>
<path fill="none" stroke="black" d="M94,-69.7902C94,-67.3082 94,-64.8262 94,-62.3443"/>
<polygon fill="black" stroke="black" points="97.5001,-62.1406 94,-52.1406 90.5001,-62.1407 97.5001,-62.1406"/>
</g>
<!-- setup_hiera -->
<g id="node6" class="node"><title>setup_hiera</title>
<polygon fill="none" stroke="black" points="532,-52 428,-52 428,-16 532,-16 532,-52"/>
<text text-anchor="middle" x="480" y="-30.3" font-family="Times,serif" font-size="14.00">060&#45;setup_hiera</text>
</g>
<!-- setup_puppet_modules&#45;&gt;setup_hiera -->
<g id="edge1" class="edge"><title>setup_puppet_modules&#45;&gt;setup_hiera</title>
<path fill="none" stroke="black" d="M391.51,-34C400.291,-34 409.107,-34 417.584,-34"/>
<polygon fill="black" stroke="black" points="417.73,-37.5001 427.73,-34 417.73,-30.5001 417.73,-37.5001"/>
</g>
<!-- run_puppet_hiera -->
<g id="node7" class="node"><title>run_puppet_hiera</title>
<polygon fill="none" stroke="red" points="707.5,-52 568.5,-52 568.5,-16 707.5,-16 707.5,-52"/>
<text text-anchor="middle" x="638" y="-30.3" font-family="Times,serif" font-size="14.00">080_run_puppet_hiera</text>
</g>
<!-- setup_hiera&#45;&gt;run_puppet_hiera -->
<g id="edge2" class="edge"><title>setup_hiera&#45;&gt;run_puppet_hiera</title>
<path fill="none" stroke="black" d="M532.08,-34C540.473,-34 549.34,-34 558.221,-34"/>
<polygon fill="black" stroke="black" points="558.229,-37.5001 568.228,-34 558.228,-30.5001 558.229,-37.5001"/>
</g>
<!-- puppet -->
<g id="node8" class="node"><title>puppet</title>
<ellipse fill="none" stroke="black" cx="827" cy="-34" rx="83.3857" ry="18"/>
<text text-anchor="middle" x="827" y="-30.3" font-family="Times,serif" font-size="14.00">Regular Puppet runs</text>
</g>
<!-- run_puppet_hiera&#45;&gt;puppet -->
<g id="edge7" class="edge"><title>run_puppet_hiera&#45;&gt;puppet</title>
<path fill="none" stroke="black" stroke-dasharray="5,2" d="M707.57,-34C716.036,-34 724.796,-34 733.544,-34"/>
<polygon fill="black" stroke="black" points="733.79,-37.5001 743.79,-34 733.79,-30.5001 733.79,-37.5001"/>
</g>
<!-- puppet&#45;&gt;puppet -->
<g id="edge8" class="edge"><title>puppet&#45;&gt;puppet</title>
<path fill="none" stroke="black" d="M793.953,-50.6641C786.609,-60.625 797.625,-70 827,-70 845.818,-70 857.102,-66.1525 860.851,-60.7682"/>
<polygon fill="black" stroke="black" points="864.329,-60.3549 860.047,-50.6641 857.351,-60.9102 864.329,-60.3549"/>
</g>
</g>
</svg>
