<?xml version="1.0" encoding="UTF-8" standalone="no"?>
<!DOCTYPE svg PUBLIC "-//W3C//DTD SVG 1.1//EN"
 "http://www.w3.org/Graphics/SVG/1.1/DTD/svg11.dtd">
<!-- Generated by graphviz version 2.36.0 (20140111.2315)
 -->
<!-- Title: %3 Pages: 1 -->
<svg width="1043pt" height="591pt"
 viewBox="0.00 0.00 1043.00 591.00" xmlns="http://www.w3.org/2000/svg" xmlns:xlink="http://www.w3.org/1999/xlink">
<g id="graph0" class="graph" transform="scale(1 1) rotate(0) translate(4 587)">
<title>%3</title>
<polygon fill="white" stroke="none" points="-4,4 -4,-587 1039,-587 1039,4 -4,4"/>
<g id="clust1" class="cluster"><title>cluster_metadata</title>
<polygon fill="none" stroke="black" points="161,-253 161,-382 283,-382 283,-253 161,-253"/>
<text text-anchor="middle" x="222" y="-366.8" font-family="Times,serif" font-size="14.00">cloud&#45;init metadata</text>
</g>
<g id="clust2" class="cluster"><title>cluster_heat_params</title>
<polygon fill="none" stroke="black" points="158,-8 158,-245 286,-245 286,-8 158,-8"/>
<text text-anchor="middle" x="222" y="-229.8" font-family="Times,serif" font-size="14.00">Heat Parameters</text>
</g>
<g id="clust3" class="cluster"><title>cluster_config_repos</title>
<polygon fill="none" stroke="black" points="540,-253 540,-575 699,-575 699,-253 540,-253"/>
<text text-anchor="middle" x="619.5" y="-559.8" font-family="Times,serif" font-size="14.00">Configuration repositories</text>
</g>
<g id="clust4" class="cluster"><title>cluster_additional_config</title>
<polygon fill="none" stroke="black" points="563,-361 563,-544 675,-544 675,-361 563,-361"/>
<text text-anchor="middle" x="619" y="-528.8" font-family="Times,serif" font-size="14.00">additional_config</text>
</g>
<!-- heat -->
<g id="node1" class="node"><title>heat</title>
<ellipse fill="none" stroke="black" cx="64" cy="-217" rx="63.8893" ry="18"/>
<text text-anchor="middle" x="64" y="-213.3" font-family="Times,serif" font-size="14.00">Heat Template</text>
</g>
<!-- topics -->
<g id="node2" class="node"><title>topics</title>
<polygon fill="none" stroke="black" points="249,-351 195,-351 195,-315 249,-315 249,-351"/>
<text text-anchor="middle" x="222" y="-329.3" font-family="Times,serif" font-size="14.00">topics</text>
</g>
<!-- heat&#45;&gt;topics -->
<g id="edge1" class="edge"><title>heat&#45;&gt;topics</title>
<path fill="none" stroke="black" d="M79.9269,-234.68C95.7255,-252.592 122.231,-280.477 152.893,-302.342"/>
<polygon fill="black" stroke="black" points="150.983,-305.276 161.208,-308.048 154.943,-299.504 150.983,-305.276"/>
</g>
<!-- config_branch -->
<g id="node7" class="node"><title>config_branch</title>
<polygon fill="none" stroke="black" points="269.5,-52 174.5,-52 174.5,-16 269.5,-16 269.5,-52"/>
<text text-anchor="middle" x="222" y="-30.3" font-family="Times,serif" font-size="14.00">config_branch</text>
</g>
<!-- heat&#45;&gt;config_branch -->
<g id="edge2" class="edge"><title>heat&#45;&gt;config_branch</title>
<path fill="none" stroke="black" d="M71.3686,-199.108C82.84,-169.081 109.648,-107.917 150.492,-67.9571"/>
<polygon fill="black" stroke="black" points="153.044,-70.364 158,-61 148.286,-65.2294 153.044,-70.364"/>
</g>
<!-- nodetype -->
<g id="node3" class="node"><title>nodetype</title>
<polygon fill="none" stroke="black" points="255,-297 189,-297 189,-261 255,-261 255,-297"/>
<text text-anchor="middle" x="222" y="-275.3" font-family="Times,serif" font-size="14.00">nodetype</text>
</g>
<!-- server -->
<g id="node15" class="node"><title>server</title>
<ellipse fill="none" stroke="black" cx="943" cy="-185" rx="79.0865" ry="79.0865"/>
<text text-anchor="middle" x="943" y="-181.3" font-family="Times,serif" font-size="14.00">Openstack instance</text>
</g>
<!-- nodetype&#45;&gt;server -->
<g id="edge4" class="edge"><title>nodetype&#45;&gt;server</title>
<path fill="none" stroke="black" d="M282.639,-271.203C409.237,-254.652 705.369,-215.937 853.847,-196.525"/>
<polygon fill="black" stroke="black" points="854.706,-199.942 864.168,-195.176 853.799,-193.001 854.706,-199.942"/>
</g>
<!-- additional_config -->
<g id="node4" class="node"><title>additional_config</title>
<polygon fill="none" stroke="black" points="278,-214 166,-214 166,-178 278,-178 278,-214"/>
<text text-anchor="middle" x="222" y="-192.3" font-family="Times,serif" font-size="14.00">additional_config</text>
</g>
<!-- deploy_key -->
<g id="node5" class="node"><title>deploy_key</title>
<polygon fill="none" stroke="black" points="262,-160 182,-160 182,-124 262,-124 262,-160"/>
<text text-anchor="middle" x="222" y="-138.3" font-family="Times,serif" font-size="14.00">deploy_key</text>
</g>
<!-- config_repo -->
<g id="node6" class="node"><title>config_repo</title>
<polygon fill="none" stroke="black" points="263,-106 181,-106 181,-70 263,-70 263,-106"/>
<text text-anchor="middle" x="222" y="-84.3" font-family="Times,serif" font-size="14.00">config_repo</text>
</g>
<!-- autostrap -->
<g id="node8" class="node"><title>autostrap</title>
<polygon fill="none" stroke="black" points="407.5,-188 316.5,-188 316.5,-152 407.5,-152 407.5,-188"/>
<text text-anchor="middle" x="362" y="-166.3" font-family="Times,serif" font-size="14.00">AS::autostrap</text>
</g>
<!-- config_branch&#45;&gt;autostrap -->
<g id="edge3" class="edge"><title>config_branch&#45;&gt;autostrap</title>
<path fill="none" stroke="black" d="M286,-61C313.448,-83.4934 335.082,-118.535 347.923,-142.788"/>
<polygon fill="black" stroke="black" points="344.881,-144.526 352.564,-151.821 351.107,-141.327 344.881,-144.526"/>
</g>
<!-- additional_dot -->
<g id="node11" class="node"><title>additional_dot</title>
<polygon fill="none" stroke="black" points="646,-459 592,-459 592,-423 646,-423 646,-459"/>
<text text-anchor="middle" x="619" y="-437.3" font-family="Times,serif" font-size="14.00">...</text>
</g>
<!-- autostrap&#45;&gt;additional_dot -->
<g id="edge5" class="edge"><title>autostrap&#45;&gt;additional_dot</title>
<path fill="none" stroke="black" d="M371.329,-188.239C392.77,-233.218 454.256,-350.395 540,-414 544.222,-417.132 548.836,-419.921 553.642,-422.4"/>
<polygon fill="black" stroke="black" points="552.528,-425.743 563.071,-426.797 555.487,-419.399 552.528,-425.743"/>
<text text-anchor="middle" x="474" y="-401.8" font-family="Times,serif" font-size="14.00">additional_config</text>
</g>
<!-- autostrap&#45;&gt;server -->
<g id="edge10" class="edge"><title>autostrap&#45;&gt;server</title>
<path fill="none" stroke="black" d="M407.951,-171.165C503.314,-173.635 727.408,-179.441 852.892,-182.692"/>
<polygon fill="black" stroke="black" points="853.149,-186.199 863.237,-182.959 853.331,-179.202 853.149,-186.199"/>
<text text-anchor="middle" x="619" y="-182.8" font-family="Times,serif" font-size="14.00">1st stage bootstrap script</text>
</g>
<!-- project_config -->
<g id="node9" class="node"><title>project_config</title>
<polygon fill="none" stroke="black" points="665.5,-297 572.5,-297 572.5,-261 665.5,-261 665.5,-297"/>
<text text-anchor="middle" x="619" y="-275.3" font-family="Times,serif" font-size="14.00">project&#45;config</text>
</g>
<!-- combined_config -->
<g id="node14" class="node"><title>combined_config</title>
<polygon fill="none" stroke="black" points="1035,-351 851,-351 851,-315 1035,-315 1035,-351"/>
<text text-anchor="middle" x="943" y="-329.3" font-family="Times,serif" font-size="14.00">Combined Hiera configuration</text>
</g>
<!-- project_config&#45;&gt;combined_config -->
<g id="edge7" class="edge"><title>project_config&#45;&gt;combined_config</title>
<path fill="none" stroke="black" d="M665.726,-286.382C708.873,-293.379 775.359,-304.241 833,-314 835.527,-314.428 838.087,-314.863 840.669,-315.303"/>
<polygon fill="black" stroke="black" points="840.272,-318.786 850.719,-317.021 841.452,-311.886 840.272,-318.786"/>
<text text-anchor="middle" x="775" y="-317.8" font-family="Times,serif" font-size="14.00">extend and override</text>
</g>
<!-- additional_1 -->
<g id="node10" class="node"><title>additional_1</title>
<polygon fill="none" stroke="black" points="659.5,-513 578.5,-513 578.5,-477 659.5,-477 659.5,-513"/>
<text text-anchor="middle" x="619" y="-491.3" font-family="Times,serif" font-size="14.00">additional 1</text>
</g>
<!-- additional_dot&#45;&gt;combined_config -->
<g id="edge8" class="edge"><title>additional_dot&#45;&gt;combined_config</title>
<path fill="none" stroke="black" d="M674.874,-422.595C731.301,-403.669 819.088,-374.225 878.485,-354.303"/>
<polygon fill="black" stroke="black" points="879.841,-357.54 888.209,-351.042 877.615,-350.904 879.841,-357.54"/>
<text text-anchor="middle" x="775" y="-409.8" font-family="Times,serif" font-size="14.00">extend and override</text>
</g>
<!-- additional_n -->
<g id="node12" class="node"><title>additional_n</title>
<polygon fill="none" stroke="black" points="659.5,-405 578.5,-405 578.5,-369 659.5,-369 659.5,-405"/>
<text text-anchor="middle" x="619" y="-383.3" font-family="Times,serif" font-size="14.00">additional n</text>
</g>
<!-- global_config -->
<g id="node13" class="node"><title>global_config</title>
<polygon fill="none" stroke="black" points="663.5,-351 574.5,-351 574.5,-315 663.5,-315 663.5,-351"/>
<text text-anchor="middle" x="619" y="-329.3" font-family="Times,serif" font-size="14.00">global&#45;config</text>
</g>
<!-- global_config&#45;&gt;combined_config -->
<g id="edge6" class="edge"><title>global_config&#45;&gt;combined_config</title>
<path fill="none" stroke="black" d="M663.761,-333C708.951,-333 781.053,-333 840.536,-333"/>
<polygon fill="black" stroke="black" points="840.725,-336.5 850.725,-333 840.725,-329.5 840.725,-336.5"/>
<text text-anchor="middle" x="775" y="-336.8" font-family="Times,serif" font-size="14.00">default configuration</text>
</g>
<!-- combined_config&#45;&gt;server -->
<g id="edge9" class="edge"><title>combined_config&#45;&gt;server</title>
<path fill="none" stroke="black" d="M943,-314.995C943,-301.503 943,-288.012 943,-274.52"/>
<polygon fill="black" stroke="black" points="946.5,-274.203 943,-264.203 939.5,-274.203 946.5,-274.203"/>
</g>
</g>
</svg>
